<?xml version="1.0" encoding="utf-8"?>
<!-- Generator: Adobe Illustrator 16.0.0, SVG Export Plug-In . SVG Version: 6.00 Build 0)  -->
<!DOCTYPE svg PUBLIC "-//W3C//DTD SVG 1.0//EN" "http://www.w3.org/TR/2001/REC-SVG-20010904/DTD/svg10.dtd">
<svg version="1.0" id="Layer_1" xmlns="http://www.w3.org/2000/svg" xmlns:xlink="http://www.w3.org/1999/xlink" x="0px" y="0px"
	 width="125px" height="30px" viewBox="0 0 125 30" enable-background="new 0 0 125 30" xml:space="preserve">
<g>
	<defs>
		<path id="SVGID_1_" d="M106.511,26.864l7.234-2.447V2.998l-7.234,2.301V26.864z M125,0.22v29.56H95.44V0.22H125z"/>
	</defs>
	<clipPath id="SVGID_2_">
		<use xlink:href="#SVGID_1_"  overflow="visible"/>
	</clipPath>
	<g clip-path="url(#SVGID_2_)">
		<defs>
			<rect id="SVGID_3_" x="-733.375" y="-17.733" width="957.443" height="680.848"/>
		</defs>
		<clipPath id="SVGID_4_">
			<use xlink:href="#SVGID_3_"  overflow="visible"/>
		</clipPath>
		<rect x="92.115" y="-3.105" clip-path="url(#SVGID_4_)" fill="#522D24" width="36.21" height="36.209"/>
	</g>
</g>
<g>
	<defs>
		<path id="SVGID_5_" d="M4.586,27.951c-0.375,0.288-0.842,0.447-1.325,0.454c-0.344,0.043-0.69-0.06-0.945-0.281
			c-0.256-0.225-0.392-0.543-0.372-0.872c0-0.966,1.191-1.194,2.641-1.24V27.951z M3.693,21.334
			c-1.103,0.059-2.195,0.229-3.261,0.505l0.478,1.604c0.729-0.197,1.478-0.318,2.233-0.364c1.075,0,1.49,0.343,1.514,1.486v0.043
			C1.827,24.698,0,25.396,0,27.335c0,0.651,0.277,1.277,0.768,1.734s1.154,0.71,1.843,0.701c0.816,0.056,1.63-0.11,2.352-0.475
			c0,0.139,0.063,0.206,0.11,0.364h1.685c0-0.499,0-1.152,0-1.718v-3.713c0-2.532-1.638-2.865-3.135-2.865L3.693,21.334z"/>
	</defs>
	<clipPath id="SVGID_6_">
		<use xlink:href="#SVGID_5_"  overflow="visible"/>
	</clipPath>
	<g clip-path="url(#SVGID_6_)">
		<defs>
			<rect id="SVGID_7_" x="-733.375" y="-17.733" width="957.443" height="680.848"/>
		</defs>
		<clipPath id="SVGID_8_">
			<use xlink:href="#SVGID_7_"  overflow="visible"/>
		</clipPath>
		<rect x="-3.324" y="18.011" clip-path="url(#SVGID_8_)" fill="#522D24" width="13.406" height="15.094"/>
	</g>
</g>
<g>
	<defs>
		<path id="SVGID_9_" d="M46.815,27.949c-0.373,0.29-0.839,0.451-1.32,0.454c-0.342,0.045-0.688-0.06-0.942-0.279
			c-0.254-0.225-0.39-0.543-0.37-0.872c0-0.966,1.18-1.196,2.632-1.24V27.949z M45.917,21.334c-1.098,0.048-2.188,0.208-3.25,0.478
			l0.476,1.604c0.727-0.198,1.474-0.32,2.228-0.366c1.078,0,1.476,0.342,1.5,1.486v0.043c-2.829,0.12-4.64,0.818-4.64,2.757
			c0.001,0.656,0.279,1.283,0.774,1.741c0.494,0.457,1.16,0.708,1.85,0.692c0.812,0.058,1.625-0.106,2.344-0.475
			c0.038,0.141,0.062,0.206,0.117,0.364h1.671c0-0.497,0-1.15,0-1.716v-3.713c0-2.532-1.64-2.865-3.125-2.865L45.917,21.334z"/>
	</defs>
	<clipPath id="SVGID_10_">
		<use xlink:href="#SVGID_9_"  overflow="visible"/>
	</clipPath>
	<g clip-path="url(#SVGID_10_)">
		<defs>
			<rect id="SVGID_11_" x="-733.375" y="-17.733" width="957.443" height="680.848"/>
		</defs>
		<clipPath id="SVGID_12_">
			<use xlink:href="#SVGID_11_"  overflow="visible"/>
		</clipPath>
		<rect x="38.906" y="18.011" clip-path="url(#SVGID_12_)" fill="#522D24" width="13.406" height="15.094"/>
	</g>
</g>
<g>
	<defs>
		<path id="SVGID_13_" d="M67.929,27.951c-0.376,0.288-0.843,0.447-1.327,0.454c-0.344,0.043-0.689-0.06-0.943-0.281
			c-0.255-0.225-0.389-0.543-0.367-0.872c0-0.966,1.178-1.194,2.638-1.24V27.951z M67.001,21.334
			c-1.103,0.059-2.197,0.227-3.264,0.505l0.478,1.604c0.74-0.209,1.501-0.34,2.27-0.393c1.082,0,1.491,0.34,1.516,1.484v0.046
			c-2.85,0.117-4.655,0.817-4.655,2.754c-0.002,0.654,0.274,1.279,0.764,1.738c0.492,0.458,1.158,0.709,1.85,0.697
			c0.815,0.053,1.631-0.11,2.354-0.475c0,0.139,0.07,0.206,0.117,0.364h1.672c0-0.499,0-1.15,0-1.718v-3.713
			c0-2.532-1.633-2.865-3.139-2.865L67.001,21.334z"/>
	</defs>
	<clipPath id="SVGID_14_">
		<use xlink:href="#SVGID_13_"  overflow="visible"/>
	</clipPath>
	<g clip-path="url(#SVGID_14_)">
		<defs>
			<rect id="SVGID_15_" x="-733.375" y="-17.733" width="957.443" height="680.848"/>
		</defs>
		<clipPath id="SVGID_16_">
			<use xlink:href="#SVGID_15_"  overflow="visible"/>
		</clipPath>
		<rect x="60.02" y="18.011" clip-path="url(#SVGID_16_)" fill="#522D24" width="13.406" height="15.094"/>
	</g>
</g>
<g>
	<defs>
		<path id="SVGID_17_" d="M57.412,28.046c-0.393,0.005-0.784-0.03-1.169-0.112v-4.711c0.417-0.11,0.846-0.174,1.278-0.188
			c0.896,0,1.924,0.068,1.924,2.482c0,1.621-0.943,2.528-2.01,2.528 M57.591,21.212c-0.456,0.006-0.909,0.053-1.355,0.136v-3.393
			h-2.182v11.352c1.096,0.329,2.236,0.488,3.381,0.473c2.335,0,4.222-1.544,4.222-4.262c0-3.459-1.691-4.306-4.058-4.306"/>
	</defs>
	<clipPath id="SVGID_18_">
		<use xlink:href="#SVGID_17_"  overflow="visible"/>
	</clipPath>
	<g clip-path="url(#SVGID_18_)">
		<defs>
			<rect id="SVGID_19_" x="-733.375" y="-17.733" width="957.443" height="680.848"/>
		</defs>
		<clipPath id="SVGID_20_">
			<use xlink:href="#SVGID_19_"  overflow="visible"/>
		</clipPath>
		<rect x="50.73" y="14.632" clip-path="url(#SVGID_20_)" fill="#522D24" width="14.25" height="18.473"/>
	</g>
</g>
<g>
	<defs>
		<polyline id="SVGID_21_" points="85.658,24.929 88.622,21.554 86.264,21.554 83.218,25.156 83.218,17.971 81.081,17.955 
			81.081,29.779 83.218,29.779 83.218,25.947 83.891,25.947 86.188,29.779 88.682,29.779 85.658,24.929 		"/>
	</defs>
	<clipPath id="SVGID_22_">
		<use xlink:href="#SVGID_21_"  overflow="visible"/>
	</clipPath>
	<g clip-path="url(#SVGID_22_)">
		<defs>
			<rect id="SVGID_23_" x="-733.375" y="-17.733" width="957.443" height="680.848"/>
		</defs>
		<clipPath id="SVGID_24_">
			<use xlink:href="#SVGID_23_"  overflow="visible"/>
		</clipPath>
		<rect x="77.757" y="14.632" clip-path="url(#SVGID_24_)" fill="#522D24" width="14.251" height="18.473"/>
	</g>
</g>
<g>
	<defs>
		<rect id="SVGID_25_" x="14.359" y="21.334" width="2.534" height="8.445"/>
	</defs>
	<clipPath id="SVGID_26_">
		<use xlink:href="#SVGID_25_"  overflow="visible"/>
	</clipPath>
	<g clip-path="url(#SVGID_26_)">
		<defs>
			<rect id="SVGID_27_" x="-733.375" y="-17.733" width="957.443" height="680.848"/>
		</defs>
		<clipPath id="SVGID_28_">
			<use xlink:href="#SVGID_27_"  overflow="visible"/>
		</clipPath>
		<rect x="11.034" y="18.011" clip-path="url(#SVGID_28_)" fill="#522D24" width="9.183" height="15.094"/>
	</g>
</g>
<g>
	<defs>
		<path id="SVGID_29_" d="M15.633,17.955c-0.514-0.003-0.979,0.307-1.177,0.782c-0.198,0.475-0.088,1.021,0.277,1.385
			c0.365,0.361,0.914,0.47,1.388,0.269c0.474-0.202,0.778-0.668,0.772-1.184C16.888,18.515,16.325,17.955,15.633,17.955"/>
	</defs>
	<clipPath id="SVGID_30_">
		<use xlink:href="#SVGID_29_"  overflow="visible"/>
	</clipPath>
	<g clip-path="url(#SVGID_30_)">
		<defs>
			<rect id="SVGID_31_" x="-733.375" y="-17.733" width="957.443" height="680.848"/>
		</defs>
		<clipPath id="SVGID_32_">
			<use xlink:href="#SVGID_31_"  overflow="visible"/>
		</clipPath>
		<rect x="11.034" y="14.632" clip-path="url(#SVGID_32_)" fill="#522D24" width="9.183" height="9.183"/>
	</g>
</g>
<g>
	<defs>
		<path id="SVGID_33_" d="M22.611,21.334c-1.36,0.011-2.712,0.182-4.03,0.505v7.94h2.167v-6.336
			c0.512-0.094,1.032-0.142,1.553-0.142c1.46,0,1.693,0.896,1.693,2.336v4.142h2.189v-4.92c0-2.223-1.125-3.502-3.602-3.502"/>
	</defs>
	<clipPath id="SVGID_34_">
		<use xlink:href="#SVGID_33_"  overflow="visible"/>
	</clipPath>
	<g clip-path="url(#SVGID_34_)">
		<defs>
			<rect id="SVGID_35_" x="-733.375" y="-17.733" width="957.443" height="680.848"/>
		</defs>
		<clipPath id="SVGID_36_">
			<use xlink:href="#SVGID_35_"  overflow="visible"/>
		</clipPath>
		<rect x="15.258" y="18.011" clip-path="url(#SVGID_36_)" fill="#522D24" width="14.25" height="15.094"/>
	</g>
</g>
<g>
	<defs>
		<path id="SVGID_37_" d="M75.825,21.334c-1.36,0.011-2.715,0.182-4.034,0.505v7.94h2.157v-6.336
			c0.515-0.094,1.034-0.142,1.558-0.142c1.457,0,1.69,0.896,1.69,2.336v4.142h2.195v-4.92c0-2.223-1.137-3.502-3.62-3.502"/>
	</defs>
	<clipPath id="SVGID_38_">
		<use xlink:href="#SVGID_37_"  overflow="visible"/>
	</clipPath>
	<g clip-path="url(#SVGID_38_)">
		<defs>
			<rect id="SVGID_39_" x="-733.375" y="-17.733" width="957.443" height="680.848"/>
		</defs>
		<clipPath id="SVGID_40_">
			<use xlink:href="#SVGID_39_"  overflow="visible"/>
		</clipPath>
		<rect x="68.467" y="18.011" clip-path="url(#SVGID_40_)" fill="#522D24" width="14.25" height="15.094"/>
	</g>
</g>
<g>
	<defs>
		<path id="SVGID_41_" d="M37.001,21.339c-1.014-0.009-2.015,0.209-2.931,0.636c-0.692-0.444-1.507-0.666-2.33-0.636
			c-1.306,0.013-2.604,0.181-3.868,0.5v7.896h2.14v-6.301c0.501-0.098,1.011-0.144,1.521-0.142c1.401,0,1.614,0.892,1.614,2.323
			v4.119h2.141v-4.892c-0.005-0.253-0.031-0.503-0.077-0.749v-0.092l-0.038-0.255c0.502-0.262,1.061-0.4,1.629-0.411
			c1.386,0,1.606,0.868,1.606,2.322v4.12h2.131v-4.936c0-2.248-1.103-3.484-3.495-3.484"/>
	</defs>
	<clipPath id="SVGID_42_">
		<use xlink:href="#SVGID_41_"  overflow="visible"/>
	</clipPath>
	<g clip-path="url(#SVGID_42_)">
		<defs>
			<rect id="SVGID_43_" x="-733.375" y="-17.733" width="957.443" height="680.848"/>
		</defs>
		<clipPath id="SVGID_44_">
			<use xlink:href="#SVGID_43_"  overflow="visible"/>
		</clipPath>
		<rect x="24.548" y="18.011" clip-path="url(#SVGID_44_)" fill="#522D24" width="19.317" height="15.094"/>
	</g>
</g>
<g>
	<defs>
		<path id="SVGID_45_" d="M12.128,28.137c-0.479,0-0.868-0.253-0.868-1.181v-9.001h-1.97v9.068c0,2.483,1.229,2.756,2.136,2.756
			c0.341,0,0.695,0,1.243,0l-0.035-1.62c-0.178,0.01-0.356,0.01-0.533,0"/>
	</defs>
	<clipPath id="SVGID_46_">
		<use xlink:href="#SVGID_45_"  overflow="visible"/>
	</clipPath>
	<g clip-path="url(#SVGID_46_)">
		<defs>
			<rect id="SVGID_47_" x="-733.375" y="-17.733" width="957.443" height="680.848"/>
		</defs>
		<clipPath id="SVGID_48_">
			<use xlink:href="#SVGID_47_"  overflow="visible"/>
		</clipPath>
		<rect x="5.966" y="14.632" clip-path="url(#SVGID_48_)" fill="#522D24" width="10.027" height="18.473"/>
	</g>
</g>
<g>
	<defs>
		<path id="SVGID_49_" d="M17.607,8.928c0,1.041-0.229,1.482-0.855,1.482c-0.626,0-1.183-0.544-1.741-1.365
			c-0.054-0.083-0.103-0.167-0.145-0.256V8.672c0-1.552,0.168-2.414,1.528-2.414c0.404,0.004,0.81,0.032,1.213,0.085V8.928z
			 M22.716,8.997c0,1.04-0.565,1.32-1.245,1.32c-0.84,0-1.527-0.451-1.527-1.957V4.573c-1.276-0.335-2.591-0.51-3.909-0.52
			c-2.383,0-3.466,1.273-3.489,3.493v1.483c0,1.04-0.443,1.319-1.015,1.319h-0.764c-0.572,0-1.016-0.279-1.016-1.319V0.236H7.46
			v8.863c0,2.049,0.764,2.995,2.512,2.995h2.367c0.874,0.109,1.727-0.32,2.168-1.095l0.214,0.212
			c0.571,0.634,1.369,1.009,2.214,1.038c0.813,0.027,1.597-0.305,2.153-0.907c0.837,0.62,1.874,0.896,2.902,0.775
			c1.527,0,3.054-0.256,3.054-2.995V4.573h-2.292L22.716,8.997z M3.3,9.447c0-0.59,0.64-0.876,1.365-0.876
			c0.138-0.013,0.276-0.013,0.413,0l0.543-1.839c-0.439-0.1-0.887-0.146-1.336-0.141c-1.481,0-3.283,0.776-3.283,2.453
			C1.01,9.478,1.11,9.904,1.298,10.294H0.535L0,12.094h5.345l0.52-1.745H4.505C3.772,10.349,3.3,10.022,3.3,9.447z M23.876,0.236
			c-0.682,0-1.237,0.556-1.245,1.249c-0.005,0.513,0.293,0.979,0.758,1.18C23.854,2.866,24.39,2.761,24.75,2.4
			c0.359-0.361,0.468-0.906,0.276-1.38C24.834,0.545,24.38,0.236,23.876,0.236z M55.981,9.029c0,0.847-0.366,1.296-1.145,1.296
			c-0.421,0-1.572-1.343-1.572-2.476c-0.055-0.432,0.084-0.865,0.382-1.177c0.297-0.313,0.718-0.471,1.144-0.429
			c0.386,0.012,0.77,0.045,1.153,0.1L55.981,9.029z M58.271,4.55c-1.277-0.313-2.585-0.479-3.901-0.497
			c-2.405,0-3.496,1.296-3.496,3.563c0.081,0.997,0.464,1.943,1.099,2.708c-1.657,0-4.031,0-4.031,0
			c-0.38,0.058-0.766-0.054-1.059-0.307s-0.463-0.622-0.468-1.013V6.243l-2.291,0.775v2.328c-0.002,0.744,0.292,1.455,0.813,1.977
			c0.521,0.519,1.228,0.804,1.959,0.786h7.918c1.969,0,3.457-0.822,3.457-2.995V4.55z M28.785,13.794
			c0-0.193,0.191-0.286,0.412-0.286h0.122l0.161-0.536c-0.129-0.044-0.263-0.062-0.397-0.055c-0.45,0-0.985,0.218-0.985,0.738
			c0.002,0.13,0.034,0.256,0.092,0.372h-0.244l-0.145,0.52h1.603l0.146-0.52h-0.404C28.93,14.051,28.785,13.934,28.785,13.794z
			 M31.931,9.029c0,1.04-0.45,1.319-1.016,1.319H29.58V0.236h-1.734v10.089h-0.901l-0.511,1.746h5.246
			c1.756,0,2.542-0.876,2.542-2.996V0.236h-2.29V9.029z M36.512,0.236v11.858h2.291V0.236H36.512z M54.76,2.75
			c0.504,0.003,0.96-0.303,1.155-0.775c0.195-0.473,0.091-1.018-0.264-1.381c-0.355-0.364-0.891-0.474-1.357-0.278
			c-0.466,0.195-0.77,0.657-0.77,1.17c-0.004,0.335,0.125,0.66,0.357,0.899c0.231,0.239,0.549,0.374,0.879,0.374V2.75z
			 M86.361,8.959c0,1.039-0.244,1.482-0.862,1.482s-1.176-0.544-1.741-1.366c-0.092-0.14-0.153-0.256-0.153-0.256V8.672
			c0-1.552,0.176-2.414,1.528-2.414c0.397,0.009,0.796,0.039,1.19,0.093L86.361,8.959z M68.504,10.349v-2.05
			c1.734-0.541,3.531-0.859,5.344-0.947c1.398,0,2.437,0.878,2.611,2.997H68.504z M84.75,4.054c-2.389,0-3.474,1.273-3.488,3.493
			v1.483c0,1.04-0.451,1.319-1.023,1.319h-1.457c-0.307-3.183-1.529-5.186-4.581-5.186c-1.95,0.103-3.879,0.465-5.735,1.08v-1.08
			l-2.291,0.73v4.456h-2.802V4.573h-2.29v6.063c0.043,0.784-0.235,1.551-0.769,2.118c-0.535,0.566-1.277,0.882-2.049,0.868
			l0.496,1.795c2.072,0.107,3.932-1.281,4.451-3.323h17.874c0.878,0.12,1.742-0.312,2.184-1.095l0.214,0.212
			c0.568,0.631,1.363,1.007,2.205,1.038c1.833,0,2.993-1.226,2.993-3.392V4.573C87.399,4.238,86.078,4.063,84.75,4.054z"/>
	</defs>
	<clipPath id="SVGID_50_">
		<use xlink:href="#SVGID_49_"  overflow="visible"/>
	</clipPath>
	<g clip-path="url(#SVGID_50_)">
		<defs>
			<rect id="SVGID_51_" x="-733.375" y="-17.733" width="957.443" height="680.848"/>
		</defs>
		<clipPath id="SVGID_52_">
			<use xlink:href="#SVGID_51_"  overflow="visible"/>
		</clipPath>
		<rect x="-3.324" y="-3.105" clip-path="url(#SVGID_52_)" fill="#522D24" width="95.332" height="21.853"/>
	</g>
</g>
</svg>
